# xmcd CD database file
#
# Track frame offsets:
#	150
#	18495
#	37110
#	56890
#	74107
#	96030
#	116622
#	131185
#	151860
#	169280
#
# Disc length: 2460 seconds
#
# Revision: 2
# Processed by: cddbd v1.5.2PL0 Copyright (c) Steve Scherf et al.
# Submitted via: CDex 1.50beta10
#
DISCID=93099a0a
DTITLE=秀蘭瑪雅 - 夢中情網
DYEAR=2006
DGENRE=台語流行
TTITLE0=可愛的馬
TTITLE1=思念伊
TTITLE2=夢中情網
TTITLE3=惜別夜港邊
TTITLE4=天光光
TTITLE5=再會無情人
TTITLE6=溫泉鄉的吉他
TTITLE7=雲相思
TTITLE8=望春
TTITLE9=湯島白梅
EXTD=YEAR: 2006
EXTT0=
EXTT1=
EXTT2=
EXTT3=
EXTT4=
EXTT5=
EXTT6=
EXTT7=
EXTT8=
EXTT9=
PLAYORDER=
